# xmcd
#
# Track frame offsets:
#	150
#	12876
#	25887
#	41737
#	55576
#	69001
#	79771
#	94856
#	111668
#	125776
#	141818
#	157774
#	170736
#	207001
#
# Disc length: 3419 seconds
#
# Revision: 1
# Processed by: cddbd v1.5.2PL0 Copyright (c) Steve Scherf et al.
# Submitted via: audiograbber 1.83.01
#
DISCID=b70d590e
DTITLE=So Fucking What - Dodge City Cowboys
DYEAR=2008
DGENRE=Rock`n Roll
TTITLE0=The Dawn
TTITLE1=Hellish Rock Machine
TTITLE2=Rock City Town
TTITLE3=Big Bob
TTITLE4=Tv Slut
TTITLE5=War
TTITLE6=Overkill
TTITLE7=I Wanna Be
TTITLE8=What The Hell
TTITLE9=The Roof
TTITLE10=We Kill You die
TTITLE11=Living For Today
TTITLE12=Spacelord
TTITLE13=Daten-CD
EXTD=
EXTT0=
EXTT1=
EXTT2=
EXTT3=
EXTT4=
EXTT5=
EXTT6=
EXTT7=
EXTT8=
EXTT9=
EXTT10=
EXTT11=
EXTT12=
EXTT13=
PLAYORDER=
